<svg width="32" height="32" viewBox="0 0 32 32" fill="none" xmlns="http://www.w3.org/2000/svg">
<rect width="32" height="32" rx="16" fill="#DC3545"/>
<path d="M6.80762 6.80761C4.98954 8.62569 3.75141 10.9421 3.2498 13.4638C2.7482 15.9856 3.00564 18.5994 3.98958 20.9749C4.97352 23.3503 6.63976 25.3806 8.7776 26.8091C10.9154 28.2376 13.4289 29 16 29C18.5712 29 21.0846 28.2376 23.2224 26.8091C25.3603 25.3806 27.0265 23.3503 28.0104 20.9749C28.9944 18.5994 29.2518 15.9856 28.7502 13.4638C28.2486 10.9421 27.0105 8.62569 25.1924 6.80761C22.7526 4.373 19.4467 3.00569 16 3.00569C12.5533 3.00568 9.24738 4.373 6.80762 6.80761ZM23.7782 23.7782C22.2398 25.3165 20.2798 26.3642 18.146 26.7886C16.0122 27.2131 13.8005 26.9952 11.7905 26.1627C9.78051 25.3301 8.06254 23.9202 6.85385 22.1113C5.64515 20.3023 5.00001 18.1756 5.00001 16C5.00001 13.8244 5.64515 11.6977 6.85385 9.88873C8.06254 8.07978 9.78051 6.66989 11.7905 5.83732C13.8005 5.00476 16.0122 4.78692 18.146 5.21136C20.2798 5.6358 22.2398 6.68345 23.7782 8.22182C25.838 10.2863 26.9948 13.0836 26.9948 16C26.9948 18.9164 25.838 21.7136 23.7782 23.7782ZM19.5355 11.4639C19.667 11.4638 19.7971 11.4897 19.9185 11.5399C20.04 11.5902 20.1503 11.6639 20.2432 11.7568C20.3361 11.8497 20.4098 11.9601 20.4601 12.0815C20.5103 12.2029 20.5362 12.333 20.5361 12.4645L20.5361 18.1213C20.5361 18.3867 20.4307 18.6412 20.243 18.8288C20.0554 19.0165 19.8009 19.1219 19.5355 19.1219C19.2702 19.1219 19.0157 19.0165 18.828 18.8288C18.6404 18.6412 18.535 18.3867 18.535 18.1213L18.5359 14.8783L13.1716 20.2426C12.984 20.4302 12.7297 20.5355 12.4645 20.5355C12.1993 20.5355 11.9449 20.4302 11.7574 20.2426C11.5698 20.0551 11.4645 19.8007 11.4645 19.5355C11.4645 19.2703 11.5698 19.016 11.7574 18.8284L17.1217 13.4641L13.8787 13.465C13.6133 13.465 13.3588 13.3596 13.1712 13.172C12.9836 12.9843 12.8781 12.7298 12.8781 12.4645C12.8781 12.1991 12.9836 11.9446 13.1712 11.757C13.3588 11.5693 13.6133 11.4639 13.8787 11.4639H19.5355Z" fill="white"/>
</svg>
