<svg width="32" height="32" viewBox="0 0 32 32" fill="none" xmlns="http://www.w3.org/2000/svg">
<rect x="32" y="32" width="32" height="32" rx="16" transform="rotate(-180 32 32)" fill="white"/>
<path d="M16 29C18.5712 29 21.0846 28.2376 23.2224 26.8091C25.3602 25.3806 27.0265 23.3503 28.0104 20.9749C28.9944 18.5994 29.2518 15.9856 28.7502 13.4638C28.2486 10.9421 27.0105 8.6257 25.1924 6.80761C23.3743 4.98953 21.0579 3.7514 18.5362 3.24979C16.0144 2.74819 13.4006 3.00563 11.0251 3.98957C8.64968 4.97351 6.61935 6.63975 5.1909 8.77759C3.76244 10.9154 3 13.4288 3 16C3.00364 19.4467 4.37445 22.7512 6.81163 25.1884C9.24882 27.6256 12.5533 28.9964 16 29ZM16 5C18.1756 5 20.3023 5.64514 22.1113 6.85384C23.9202 8.06253 25.3301 9.7805 26.1627 11.7905C26.9952 13.8005 27.2131 16.0122 26.7886 18.146C26.3642 20.2798 25.3165 22.2398 23.7782 23.7782C22.2398 25.3166 20.2798 26.3642 18.146 26.7886C16.0122 27.2131 13.8005 26.9952 11.7905 26.1627C9.78049 25.3301 8.06253 23.9202 6.85383 22.1113C5.64514 20.3023 5 18.1756 5 16C5.00331 13.0836 6.1633 10.2877 8.22548 8.22548C10.2877 6.1633 13.0836 5.00331 16 5ZM10.2925 16.7075C10.1995 16.6146 10.1258 16.5043 10.0754 16.3829C10.0251 16.2615 9.99921 16.1314 9.99921 16C9.99921 15.8686 10.0251 15.7385 10.0754 15.6171C10.1258 15.4957 10.1995 15.3854 10.2925 15.2925L14.2925 11.2925C14.4801 11.1049 14.7346 10.9994 15 10.9994C15.2654 10.9994 15.5199 11.1049 15.7075 11.2925C15.8951 11.4801 16.0006 11.7346 16.0006 12C16.0006 12.2654 15.8951 12.5199 15.7075 12.7075L13.4137 15L21 15C21.2652 15 21.5196 15.1054 21.7071 15.2929C21.8946 15.4804 22 15.7348 22 16C22 16.2652 21.8946 16.5196 21.7071 16.7071C21.5196 16.8946 21.2652 17 21 17H13.4137L15.7075 19.2925C15.8951 19.4801 16.0006 19.7346 16.0006 20C16.0006 20.2654 15.8951 20.5199 15.7075 20.7075C15.5199 20.8951 15.2654 21.0006 15 21.0006C14.7346 21.0006 14.4801 20.8951 14.2925 20.7075L10.2925 16.7075Z" fill="#DC3545"/>
</svg>
