<svg width="32" height="32" viewBox="0 0 32 32" fill="none" xmlns="http://www.w3.org/2000/svg">
<rect width="32" height="32" rx="16" fill="#DC3545"/>
<rect x="3.85" y="3.85" width="24.3" height="24.3" rx="12.15" stroke="white" stroke-width="1.7"/>
<path d="M16.5808 11.3722C18.7008 11.6389 20.3608 13.2989 20.6275 15.4189C20.6675 15.7589 20.9542 16.0055 21.2875 16.0055C21.3142 16.0055 21.3408 16.0055 21.3675 15.9989C21.7342 15.9522 21.9942 15.6189 21.9475 15.2522C21.7838 13.9283 21.1826 12.697 20.2393 11.7537C19.296 10.8105 18.0647 10.2093 16.7408 10.0455C16.3742 10.0055 16.0408 10.2655 16.0008 10.6322C15.9542 10.9989 16.2142 11.3322 16.5808 11.3722ZM16.8342 12.7789C16.4808 12.6855 16.1142 12.8989 16.0208 13.2589C15.9275 13.6189 16.1408 13.9789 16.5008 14.0722C16.8458 14.1618 17.1605 14.3418 17.4125 14.5938C17.6645 14.8458 17.8446 15.1606 17.9342 15.5055C17.9786 15.6769 18.0891 15.8237 18.2416 15.9137C18.3941 16.0037 18.576 16.0295 18.7475 15.9855C19.1008 15.8922 19.3142 15.5255 19.2275 15.1722C19.0773 14.5966 18.7764 14.0714 18.3557 13.6507C17.935 13.23 17.4098 12.9291 16.8342 12.7789ZM20.8142 18.1789L19.1208 17.9855C18.9217 17.9622 18.7199 17.9842 18.5305 18.05C18.3412 18.1158 18.1692 18.2237 18.0275 18.3655L16.8008 19.5922C14.9084 18.6295 13.3702 17.0913 12.4075 15.1989L13.6408 13.9655C13.9275 13.6789 14.0675 13.2789 14.0208 12.8722L13.8275 11.1922C13.7898 10.8669 13.6338 10.5669 13.3891 10.3493C13.1445 10.1317 12.8283 10.0117 12.5008 10.0122H11.3475C10.5942 10.0122 9.9675 10.6389 10.0142 11.3922C10.3675 17.0855 14.9208 21.6322 20.6075 21.9855C21.3608 22.0322 21.9875 21.4055 21.9875 20.6522V19.4989C21.9942 18.8255 21.4875 18.2589 20.8142 18.1789Z" fill="white"/>
</svg>
